<svg width="71" height="71" viewBox="0 0 71 71" fill="none" xmlns="http://www.w3.org/2000/svg">
<path d="M50.44 44.3938H47.28L46.16 43.3138C50.08 38.7538 52.44 32.8338 52.44 26.3938C52.44 12.0338 40.8 0.393768 26.44 0.393768C12.08 0.393768 0.440002 12.0338 0.440002 26.3938C0.440002 40.7538 12.08 52.3938 26.44 52.3938C32.88 52.3938 38.8 50.0338 43.36 46.1138L44.44 47.2338V50.3938L64.44 70.3538L70.4 64.3938L50.44 44.3938ZM26.44 44.3938C16.48 44.3938 8.44 36.3538 8.44 26.3938C8.44 16.4338 16.48 8.39377 26.44 8.39377C36.4 8.39377 44.44 16.4338 44.44 26.3938C44.44 36.3538 36.4 44.3938 26.44 44.3938Z" fill="#6F6F6F"/>
</svg>
