<svg width="300" height="300" viewBox="0 0 300 300" fill="none" xmlns="http://www.w3.org/2000/svg">
<circle cx="150" cy="150" r="150" fill="#8BCCA3"/>
<mask id="path-2-outside-1_3_20" maskUnits="userSpaceOnUse" x="20" y="20" width="135" height="260" fill="black">
<rect fill="white" x="20" y="20" width="135" height="260"/>
<path d="M150 275C133.585 275 117.33 271.767 102.165 265.485C86.9989 259.203 73.219 249.996 61.6117 238.388C50.0043 226.781 40.7969 213.001 34.5151 197.835C28.2332 182.67 25 166.415 25 150C25 133.585 28.2332 117.33 34.5151 102.165C40.7969 86.9989 50.0043 73.219 61.6117 61.6116C73.219 50.0043 86.9989 40.7969 102.165 34.5151C117.33 28.2332 133.585 25 150 25L150 150V275Z"/>
</mask>
<path d="M150 275C133.585 275 117.33 271.767 102.165 265.485C86.9989 259.203 73.219 249.996 61.6117 238.388C50.0043 226.781 40.7969 213.001 34.5151 197.835C28.2332 182.67 25 166.415 25 150C25 133.585 28.2332 117.33 34.5151 102.165C40.7969 86.9989 50.0043 73.219 61.6117 61.6116C73.219 50.0043 86.9989 40.7969 102.165 34.5151C117.33 28.2332 133.585 25 150 25L150 150V275Z" stroke="#FFE177" stroke-width="10" stroke-dasharray="10 10" mask="url(#path-2-outside-1_3_20)"/>
<mask id="path-3-outside-2_3_20" maskUnits="userSpaceOnUse" x="145.4" y="20.4" width="135" height="260" fill="black">
<rect fill="white" x="145.4" y="20.4" width="135" height="260"/>
<path d="M150.4 275.4C166.815 275.4 183.07 272.167 198.235 265.885C213.401 259.603 227.181 250.396 238.788 238.788C250.396 227.181 259.603 213.401 265.885 198.235C272.167 183.07 275.4 166.815 275.4 150.4C275.4 133.985 272.167 117.73 265.885 102.565C259.603 87.3989 250.396 73.619 238.788 62.0117C227.181 50.4043 213.401 41.1969 198.235 34.9151C183.07 28.6332 166.815 25.4 150.4 25.4L150.4 150.4L150.4 275.4Z"/>
</mask>
<path d="M150.4 275.4C166.815 275.4 183.07 272.167 198.235 265.885C213.401 259.603 227.181 250.396 238.788 238.788C250.396 227.181 259.603 213.401 265.885 198.235C272.167 183.07 275.4 166.815 275.4 150.4C275.4 133.985 272.167 117.73 265.885 102.565C259.603 87.3989 250.396 73.619 238.788 62.0117C227.181 50.4043 213.401 41.1969 198.235 34.9151C183.07 28.6332 166.815 25.4 150.4 25.4L150.4 150.4L150.4 275.4Z" stroke="#FFE177" stroke-width="10" mask="url(#path-3-outside-2_3_20)"/>
<circle cx="150" cy="150" r="125" fill="#8BCCA3"/>
<path d="M134.409 200L100 152.34L106.605 143.191L134.409 181.702L193.395 100L200 109.149L134.409 200Z" fill="white"/>
</svg>
