<svg width="300" height="300" viewBox="0 0 300 300" fill="none" xmlns="http://www.w3.org/2000/svg">
<circle cx="150" cy="150" r="150" fill="#FFE177"/>
<mask id="path-2-outside-1_3_17" maskUnits="userSpaceOnUse" x="20" y="20" width="135" height="260" fill="black">
<rect fill="white" x="20" y="20" width="135" height="260"/>
<path d="M150 275C133.585 275 117.33 271.767 102.165 265.485C86.9989 259.203 73.219 249.996 61.6117 238.388C50.0043 226.781 40.7969 213.001 34.5151 197.835C28.2332 182.67 25 166.415 25 150C25 133.585 28.2332 117.33 34.5151 102.165C40.7969 86.9989 50.0043 73.219 61.6117 61.6116C73.219 50.0043 86.9989 40.7969 102.165 34.5151C117.33 28.2332 133.585 25 150 25L150 150V275Z"/>
</mask>
<path d="M150 275C133.585 275 117.33 271.767 102.165 265.485C86.9989 259.203 73.219 249.996 61.6117 238.388C50.0043 226.781 40.7969 213.001 34.5151 197.835C28.2332 182.67 25 166.415 25 150C25 133.585 28.2332 117.33 34.5151 102.165C40.7969 86.9989 50.0043 73.219 61.6117 61.6116C73.219 50.0043 86.9989 40.7969 102.165 34.5151C117.33 28.2332 133.585 25 150 25L150 150V275Z" stroke="#8BCCA3" stroke-width="10" stroke-dasharray="10 10" mask="url(#path-2-outside-1_3_17)"/>
<mask id="path-3-outside-2_3_17" maskUnits="userSpaceOnUse" x="145.4" y="20.4" width="135" height="260" fill="black">
<rect fill="white" x="145.4" y="20.4" width="135" height="260"/>
<path d="M150.4 275.4C166.815 275.4 183.07 272.167 198.235 265.885C213.401 259.603 227.181 250.396 238.788 238.788C250.396 227.181 259.603 213.401 265.885 198.235C272.167 183.07 275.4 166.815 275.4 150.4C275.4 133.985 272.167 117.73 265.885 102.565C259.603 87.3989 250.396 73.619 238.788 62.0117C227.181 50.4043 213.401 41.1969 198.235 34.9151C183.07 28.6332 166.815 25.4 150.4 25.4L150.4 150.4L150.4 275.4Z"/>
</mask>
<path d="M150.4 275.4C166.815 275.4 183.07 272.167 198.235 265.885C213.401 259.603 227.181 250.396 238.788 238.788C250.396 227.181 259.603 213.401 265.885 198.235C272.167 183.07 275.4 166.815 275.4 150.4C275.4 133.985 272.167 117.73 265.885 102.565C259.603 87.3989 250.396 73.619 238.788 62.0117C227.181 50.4043 213.401 41.1969 198.235 34.9151C183.07 28.6332 166.815 25.4 150.4 25.4L150.4 150.4L150.4 275.4Z" stroke="#8BCCA3" stroke-width="10" mask="url(#path-3-outside-2_3_17)"/>
<circle cx="150" cy="150" r="125" fill="#FFE177"/>
<path d="M124.375 203.625H175.625V183.781C175.625 176.49 173.151 170.214 168.203 164.953C163.255 159.693 157.187 157.063 150 157.063C142.813 157.063 136.745 159.693 131.797 164.953C126.849 170.214 124.375 176.49 124.375 183.781V203.625ZM150 143.937C157.187 143.937 163.255 141.307 168.203 136.047C173.151 130.786 175.625 124.458 175.625 117.063V97.375H124.375V117.063C124.375 124.458 126.849 130.786 131.797 136.047C136.745 141.307 142.813 143.937 150 143.937ZM100 213V203.625H115V183.781C115 176.49 116.901 169.797 120.703 163.703C124.505 157.609 129.792 153.208 136.563 150.5C129.792 147.792 124.505 143.365 120.703 137.219C116.901 131.073 115 124.354 115 117.063V97.375H100V88H200V97.375H185V117.063C185 124.354 183.099 131.073 179.297 137.219C175.495 143.365 170.208 147.792 163.437 150.5C170.208 153.208 175.495 157.609 179.297 163.703C183.099 169.797 185 176.49 185 183.781V203.625H200V213H100Z" fill="white"/>
</svg>
